#Comment line ignore any data following # character 
#Hierarchical Translation and Rotation (.htr) file 
[Header]	
#Header keywords are followed by a single value 
FileType HTR		#Single word string
DataType HTRS		#Translation followed by rotation and scale data
FileVersion 1		#integer
NumSegments 84		#integer
NumFrames 2		#integer
DataFrameRate 30		#integer, data frame rate in this file
EulerRotationOrder ZYX
CalibrationUnits mm
RotationUnits Degrees
GlobalAxisofGravity Y
BoneLengthAxis Y
ScaleFactor 1.00
[SegmentNames&Hierarchy]
#CHILD	PARENT
MASTER GLOBAL
root MASTER
chest root
L_mid_tent01 root
R_mid_tent01 root
spine01 root
Bip01_Neck chest
L_humerus chest
R_humerus chest
weapon_bone chest
Bip01_Head Bip01_Neck
eye_left_bone Bip01_Head
eye_right_bone Bip01_Head
L_forearm L_humerus
L_front_hand L_forearm
L_weapon_bone L_forearm
L_front_hand01_01 L_front_hand
L_front_hand02_01 L_front_hand
L_front_hand03_01 L_front_hand
L_front_hand01_02 L_front_hand01_01
L_front_hand02_02 L_front_hand02_01
L_front_hand03_02 L_front_hand03_01
R_forearm R_humerus
R_front_hand R_forearm
R_weapon_bone R_forearm
R_front_hand01_01 R_front_hand
R_front_hand02_01 R_front_hand
R_front_hand03_01 R_front_hand
R_front_hand01_02 R_front_hand01_01
R_front_hand02_02 R_front_hand02_01
R_front_hand03_02 R_front_hand03_01
null_rope01_connect L_mid_tent01
Rope1_Seg01 null_rope01_connect
Rope1_Seg02 Rope1_Seg01
Rope1_Seg03 Rope1_Seg02
Rope1_Seg04 Rope1_Seg03
Rope1_Seg05 Rope1_Seg04
Rope1_Seg06 Rope1_Seg05
Rope1_Seg07 Rope1_Seg06
Rope1_Seg09 Rope1_Seg07
L_mid_hand01 Rope1_Seg09
L_mid_hand02 Rope1_Seg09
L_mid_hand03 Rope1_Seg09
null_rope02_connect R_mid_tent01
Rope2_Seg01 null_rope02_connect
Rope2_Seg02 Rope2_Seg01
Rope2_Seg03 Rope2_Seg02
Rope2_Seg04 Rope2_Seg03
Rope2_Seg05 Rope2_Seg04
Rope2_Seg06 Rope2_Seg05
Rope2_Seg07 Rope2_Seg06
Rope2_Seg09 Rope2_Seg07
R_mid_hand01 Rope2_Seg09
R_mid_hand02 Rope2_Seg09
R_mid_hand03 Rope2_Seg09
spine02 spine01
spine03 spine02
pelvis spine03
null_rope03_connect pelvis
null_rope04_connect pelvis
Rope3_Seg01 null_rope03_connect
Rope3_Seg02 Rope3_Seg01
Rope3_Seg03 Rope3_Seg02
Rope3_Seg04 Rope3_Seg03
Rope3_Seg05 Rope3_Seg04
Rope3_Seg06 Rope3_Seg05
Rope3_Seg07 Rope3_Seg06
Rope3_Seg08 Rope3_Seg07
Rope3_Seg09 Rope3_Seg08
R_rear_hand01 Rope3_Seg09
R_rear_hand02 Rope3_Seg09
R_rear_hand03 Rope3_Seg09
Rope4_Seg01 null_rope04_connect
Rope4_Seg02 Rope4_Seg01
Rope4_Seg03 Rope4_Seg02
Rope4_Seg04 Rope4_Seg03
Rope4_Seg05 Rope4_Seg04
Rope4_Seg06 Rope4_Seg05
Rope4_Seg07 Rope4_Seg06
Rope4_Seg08 Rope4_Seg07
Rope4_Seg09 Rope4_Seg08
L_rear_hand01 Rope4_Seg09
L_rear_hand02 Rope4_Seg09
L_rear_hand03 Rope4_Seg09
[BasePosition]
#SegmentName Tx, Ty, Tz, Rx, Ry, Rz, BoneLength
MASTER 0.000000 0.000000 0.000000 -90.000000 0.000000 0.000000 10.000000 
root 0.000000 0.000000 0.000000 0.000000 0.000000 0.000000 10.000000 
chest 0.000000 0.000000 0.000000 0.000000 0.000000 0.000000 10.000000 
L_mid_tent01 0.000000 0.000000 0.000000 0.000000 0.000000 0.000000 10.000000 
R_mid_tent01 0.000000 0.000000 0.000000 0.000000 0.000000 0.000000 10.000000 
spine01 0.000000 0.000000 0.000000 0.000000 0.000000 0.000000 10.000000 
Bip01_Neck 0.000000 0.000000 0.000000 0.000000 0.000000 0.000000 10.000000 
L_humerus 0.000000 0.000000 0.000000 0.000000 0.000000 0.000000 10.000000 
R_humerus 0.000000 0.000000 0.000000 0.000000 0.000000 0.000000 10.000000 
weapon_bone 0.000000 0.000000 0.000000 0.000000 0.000000 0.000000 10.000000 
Bip01_Head 0.000000 0.000000 0.000000 0.000000 0.000000 0.000000 10.000000 
eye_left_bone 0.000000 0.000000 0.000000 0.000000 0.000000 0.000000 10.000000 
eye_right_bone 0.000000 0.000000 0.000000 0.000000 0.000000 0.000000 10.000000 
L_forearm 0.000000 0.000000 0.000000 0.000000 0.000000 0.000000 10.000000 
L_front_hand 0.000000 0.000000 0.000000 0.000000 0.000000 0.000000 10.000000 
L_weapon_bone 0.000000 0.000000 0.000000 0.000000 0.000000 0.000000 10.000000 
L_front_hand01_01 0.000000 0.000000 0.000000 0.000000 0.000000 0.000000 10.000000 
L_front_hand02_01 0.000000 0.000000 0.000000 0.000000 0.000000 0.000000 10.000000 
L_front_hand03_01 0.000000 0.000000 0.000000 0.000000 0.000000 0.000000 10.000000 
L_front_hand01_02 0.000000 0.000000 0.000000 0.000000 0.000000 0.000000 10.000000 
L_front_hand02_02 0.000000 0.000000 0.000000 0.000000 0.000000 0.000000 10.000000 
L_front_hand03_02 0.000000 0.000000 0.000000 0.000000 0.000000 0.000000 10.000000 
R_forearm 0.000000 0.000000 0.000000 0.000000 0.000000 0.000000 10.000000 
R_front_hand 0.000000 0.000000 0.000000 0.000000 0.000000 0.000000 10.000000 
R_weapon_bone 0.000000 0.000000 0.000000 0.000000 0.000000 0.000000 10.000000 
R_front_hand01_01 0.000000 0.000000 0.000000 0.000000 0.000000 0.000000 10.000000 
R_front_hand02_01 0.000000 0.000000 0.000000 0.000000 0.000000 0.000000 10.000000 
R_front_hand03_01 0.000000 0.000000 0.000000 0.000000 0.000000 0.000000 10.000000 
R_front_hand01_02 0.000000 0.000000 0.000000 0.000000 0.000000 0.000000 10.000000 
R_front_hand02_02 0.000000 0.000000 0.000000 0.000000 0.000000 0.000000 10.000000 
R_front_hand03_02 0.000000 0.000000 0.000000 0.000000 0.000000 0.000000 10.000000 
null_rope01_connect 0.000000 0.000000 0.000000 0.000000 0.000000 0.000000 10.000000 
Rope1_Seg01 0.000000 0.000000 0.000000 0.000000 0.000000 0.000000 10.000000 
Rope1_Seg02 0.000000 0.000000 0.000000 0.000000 0.000000 0.000000 10.000000 
Rope1_Seg03 0.000000 0.000000 0.000000 0.000000 0.000000 0.000000 10.000000 
Rope1_Seg04 0.000000 0.000000 0.000000 0.000000 0.000000 0.000000 10.000000 
Rope1_Seg05 0.000000 0.000000 0.000000 0.000000 0.000000 0.000000 10.000000 
Rope1_Seg06 0.000000 0.000000 0.000000 0.000000 0.000000 0.000000 10.000000 
Rope1_Seg07 0.000000 0.000000 0.000000 0.000000 0.000000 0.000000 10.000000 
Rope1_Seg09 0.000000 0.000000 0.000000 0.000000 0.000000 0.000000 10.000000 
L_mid_hand01 0.000000 0.000000 0.000000 0.000000 0.000000 0.000000 10.000000 
L_mid_hand02 0.000000 0.000000 0.000000 0.000000 0.000000 0.000000 10.000000 
L_mid_hand03 0.000000 0.000000 0.000000 0.000000 0.000000 0.000000 10.000000 
null_rope02_connect 0.000000 0.000000 0.000000 0.000000 0.000000 0.000000 10.000000 
Rope2_Seg01 0.000000 0.000000 0.000000 0.000000 0.000000 0.000000 10.000000 
Rope2_Seg02 0.000000 0.000000 0.000000 0.000000 0.000000 0.000000 10.000000 
Rope2_Seg03 0.000000 0.000000 0.000000 0.000000 0.000000 0.000000 10.000000 
Rope2_Seg04 0.000000 0.000000 0.000000 0.000000 0.000000 0.000000 10.000000 
Rope2_Seg05 0.000000 0.000000 0.000000 0.000000 0.000000 0.000000 10.000000 
Rope2_Seg06 0.000000 0.000000 0.000000 0.000000 0.000000 0.000000 10.000000 
Rope2_Seg07 0.000000 0.000000 0.000000 0.000000 0.000000 0.000000 10.000000 
Rope2_Seg09 0.000000 0.000000 0.000000 0.000000 0.000000 0.000000 10.000000 
R_mid_hand01 0.000000 0.000000 0.000000 0.000000 0.000000 0.000000 10.000000 
R_mid_hand02 0.000000 0.000000 0.000000 0.000000 0.000000 0.000000 10.000000 
R_mid_hand03 0.000000 0.000000 0.000000 0.000000 0.000000 0.000000 10.000000 
spine02 0.000000 0.000000 0.000000 0.000000 0.000000 0.000000 10.000000 
spine03 0.000000 0.000000 0.000000 0.000000 0.000000 0.000000 10.000000 
pelvis 0.000000 0.000000 0.000000 0.000000 0.000000 0.000000 10.000000 
null_rope03_connect 0.000000 0.000000 0.000000 0.000000 0.000000 0.000000 10.000000 
null_rope04_connect 0.000000 0.000000 0.000000 0.000000 0.000000 0.000000 10.000000 
Rope3_Seg01 0.000000 0.000000 0.000000 0.000000 0.000000 0.000000 10.000000 
Rope3_Seg02 0.000000 0.000000 0.000000 0.000000 0.000000 0.000000 10.000000 
Rope3_Seg03 0.000000 0.000000 0.000000 0.000000 0.000000 0.000000 10.000000 
Rope3_Seg04 0.000000 0.000000 0.000000 0.000000 0.000000 0.000000 10.000000 
Rope3_Seg05 0.000000 0.000000 0.000000 0.000000 0.000000 0.000000 10.000000 
Rope3_Seg06 0.000000 0.000000 0.000000 0.000000 0.000000 0.000000 10.000000 
Rope3_Seg07 0.000000 0.000000 0.000000 0.000000 0.000000 0.000000 10.000000 
Rope3_Seg08 0.000000 0.000000 0.000000 0.000000 0.000000 0.000000 10.000000 
Rope3_Seg09 0.000000 0.000000 0.000000 0.000000 0.000000 0.000000 10.000000 
R_rear_hand01 0.000000 0.000000 0.000000 0.000000 0.000000 0.000000 10.000000 
R_rear_hand02 0.000000 0.000000 0.000000 0.000000 0.000000 0.000000 10.000000 
R_rear_hand03 0.000000 0.000000 0.000000 0.000000 0.000000 0.000000 10.000000 
Rope4_Seg01 0.000000 0.000000 0.000000 0.000000 0.000000 0.000000 10.000000 
Rope4_Seg02 0.000000 0.000000 0.000000 0.000000 0.000000 0.000000 10.000000 
Rope4_Seg03 0.000000 0.000000 0.000000 0.000000 0.000000 0.000000 10.000000 
Rope4_Seg04 0.000000 0.000000 0.000000 0.000000 0.000000 0.000000 10.000000 
Rope4_Seg05 0.000000 0.000000 0.000000 0.000000 0.000000 0.000000 10.000000 
Rope4_Seg06 0.000000 0.000000 0.000000 0.000000 0.000000 0.000000 10.000000 
Rope4_Seg07 0.000000 0.000000 0.000000 0.000000 0.000000 0.000000 10.000000 
Rope4_Seg08 0.000000 0.000000 0.000000 0.000000 0.000000 0.000000 10.000000 
Rope4_Seg09 0.000000 0.000000 0.000000 0.000000 0.000000 0.000000 10.000000 
L_rear_hand01 0.000000 0.000000 0.000000 0.000000 0.000000 0.000000 10.000000 
L_rear_hand02 0.000000 0.000000 0.000000 0.000000 0.000000 0.000000 10.000000 
L_rear_hand03 0.000000 0.000000 0.000000 0.000000 0.000000 0.000000 10.000000 
#Beginning of Data. Separated by tabs
#Fr	Tx	Ty	Tz	Rx	Ry	Rz	SF
[MASTER]
5 -563.448242 447.720673 -118.571182 0.001660 0.001660 0.001660 729.374268
6 -646.365417 720.804321 -163.467331 0.001660 0.001660 0.001660 981.870056
[root]
5 220.780243 -128.775055 572.900757 -17.845648 4.665600 -86.695984 627.329407
6 216.955826 -141.985550 579.593201 -22.607111 3.820517 -83.734261 634.947205
[chest]
5 -84.512650 -34.090519 0.000000 40.493088 20.214474 -179.567459 91.129311
6 -84.512650 -34.090519 0.000000 35.632854 16.536963 176.533417 91.129311
[L_mid_tent01]
5 27.298973 22.179302 -249.918747 -13.559388 13.018931 44.230839 252.381729
6 27.298985 22.179291 -249.918747 -15.319556 11.032026 38.155338 252.381729
[R_mid_tent01]
5 23.228794 24.509907 226.238495 145.617432 -58.472969 43.031883 228.744751
6 23.228794 24.509907 226.238495 151.544708 -51.025429 29.690603 228.744751
[spine01]
5 -0.361383 -0.195265 0.000000 0.001723 0.001594 4.424197 0.410763
6 -0.361383 -0.195265 0.000000 0.001714 0.001604 3.790749 0.410763
[Bip01_Neck]
5 165.484543 71.581718 0.000119 176.643677 -1.657967 43.431911 180.302734
6 165.484543 71.581718 0.000119 176.643677 -1.657967 43.431911 180.302734
[L_humerus]
5 -13.983130 -135.272980 -120.471481 173.993118 -5.213258 -140.868515 181.680161
6 -13.983130 -135.272980 -120.471481 177.445267 -11.627848 -144.610214 181.680161
[R_humerus]
5 -13.983309 -135.273102 125.287651 -179.876373 4.139532 -133.358582 184.909012
6 -13.983309 -135.273102 125.287651 177.002197 9.693593 -138.977844 184.909012
[weapon_bone]
5 235.964890 -300.705902 0.000000 0.000000 -89.951546 -128.212341 382.234833
6 235.964890 -300.705902 0.000000 0.000000 -89.951546 -128.212341 382.234833
[Bip01_Head]
5 213.345261 185.991089 8.220174 4.283710 1.021461 -38.762695 283.154480
6 213.349304 185.979767 8.366184 2.496157 1.193883 -39.145191 283.154358
[eye_left_bone]
5 -24.626970 125.451866 -64.772606 0.000000 -90.000000 -99.840431 143.318359
6 -24.626970 125.451866 -64.772606 0.000000 -90.000000 -99.840431 143.318359
[eye_right_bone]
5 -24.626970 125.451866 64.327362 0.000000 -89.965736 80.156380 143.117676
6 -24.626970 125.451866 64.327362 0.000000 -89.965736 80.156380 143.117676
[L_forearm]
5 322.776093 0.000000 -0.000119 0.000426 -0.002308 -110.921768 322.776093
6 322.776093 0.000000 -0.000119 0.000424 -0.002309 -110.830124 322.776093
[L_front_hand]
5 241.149185 -0.042021 -3.300071 -178.667953 -1.835447 -27.422350 241.171753
6 241.149185 -0.042021 -3.300071 -178.667953 -1.835447 -27.422350 241.171753
[L_weapon_bone]
5 156.183838 0.000000 0.000000 0.000014 0.000007 0.000001 156.183838
6 156.183838 0.000000 0.000000 0.000014 0.000007 0.000001 156.183838
[L_front_hand01_01]
5 86.095154 20.947098 -0.655860 -0.351864 -0.488251 73.756912 88.609184
6 86.095154 20.947098 -0.655860 -0.359433 -0.482613 74.612556 88.609184
[L_front_hand02_01]
5 86.935165 -11.437475 24.513514 151.937759 -59.151104 -58.507717 91.046425
6 86.935165 -11.437475 24.513514 153.214294 -59.547077 -59.995953 91.046425
[L_front_hand03_01]
5 86.637497 -14.123976 -20.424902 -151.626480 57.374607 -59.999687 90.126129
6 86.637497 -14.123976 -20.424902 -152.821930 57.770218 -61.413536 90.126129
[L_front_hand01_02]
5 71.020905 -0.000179 0.000030 0.000325 -0.002325 -105.933075 71.020905
6 71.020905 -0.000179 0.000030 0.000327 -0.002324 -106.024261 71.020905
[L_front_hand02_02]
5 71.020927 -0.000119 0.000060 0.000325 -0.002325 -105.933075 71.020927
6 71.020927 -0.000119 0.000060 0.000327 -0.002324 -106.024261 71.020927
[L_front_hand03_02]
5 71.020905 -0.000060 0.000060 0.000325 -0.002325 -105.933075 71.020905
6 71.020905 -0.000060 0.000060 0.000327 -0.002324 -106.024261 71.020905
[R_forearm]
5 322.776428 -0.000060 0.000030 0.201227 0.067816 -109.573105 322.776428
6 322.776428 -0.000060 0.000030 0.201275 0.067670 -109.490349 322.776428
[R_front_hand]
5 238.847015 -0.006795 2.210259 -2.635298 -10.645460 -26.312506 238.857239
6 238.847015 -0.006795 2.210259 -2.635298 -10.645461 -26.312506 238.857239
[R_weapon_bone]
5 155.664093 0.002503 -0.000030 0.003487 0.001180 -90.988930 155.664078
6 155.664093 0.002503 -0.000030 0.003487 0.001180 -90.988930 155.664078
[R_front_hand01_01]
5 87.624611 14.231146 22.918642 -154.633484 -59.950607 61.746033 91.683487
6 87.624611 14.231146 22.918642 -154.633514 -59.950634 61.746063 91.683487
[R_front_hand02_01]
5 89.356956 14.367283 -19.491137 154.602661 58.302849 63.744389 92.579636
6 89.356956 14.367283 -19.491137 154.602676 58.302864 63.744400 92.579636
[R_front_hand03_01]
5 87.286232 -22.307278 -0.143439 0.162155 -0.423168 -75.767921 90.091743
6 87.286232 -22.307278 -0.143439 0.162155 -0.423168 -75.767921 90.091743
[R_front_hand01_02]
5 71.020905 0.000060 0.000119 0.002323 -0.000334 106.381714 71.020905
6 71.020905 0.000060 0.000119 0.002323 -0.000334 106.381721 71.020905
[R_front_hand02_02]
5 71.020844 -0.000030 -0.000119 0.002323 -0.000334 106.381714 71.020836
6 71.020844 -0.000030 -0.000119 0.002323 -0.000334 106.381721 71.020836
[R_front_hand03_02]
5 71.020905 0.000000 0.000030 0.002323 -0.000334 106.381714 71.020905
6 71.020905 0.000000 0.000030 0.002323 -0.000334 106.381721 71.020905
[null_rope01_connect]
5 328.732483 0.000000 -0.000238 -1.735256 -36.726952 39.883785 328.732483
6 328.732483 0.000000 -0.000238 3.083168 -41.333698 41.265785 328.732483
[Rope1_Seg01]
5 -0.000018 -0.000062 0.000027 -147.029007 65.681862 48.789116 0.000070
6 -0.000013 -0.000061 0.000033 -178.085709 69.127281 22.498838 0.000070
[Rope1_Seg02]
5 139.999863 -0.000179 0.000000 -13.579743 11.959200 2.724778 139.999863
6 139.999863 -0.000179 0.000000 -13.157887 14.492137 6.578195 139.999863
[Rope1_Seg03]
5 139.999924 0.000060 -0.000060 -20.482830 13.836487 7.976681 139.999924
6 139.999924 0.000060 -0.000060 -15.302412 13.927180 13.143668 139.999924
[Rope1_Seg04]
5 139.999924 -0.000060 -0.000119 -17.689472 9.328402 15.272428 139.999924
6 139.999924 -0.000060 -0.000119 -10.444088 9.362877 11.690858 139.999924
[Rope1_Seg05]
5 139.999832 0.000119 -0.000060 -12.012643 10.227476 6.877416 139.999832
6 139.999832 0.000119 -0.000060 -8.489838 10.578282 5.707197 139.999832
[Rope1_Seg06]
5 139.999954 0.000119 -0.000060 -13.437378 12.532155 3.861474 139.999954
6 139.999954 0.000119 -0.000060 -7.217366 7.213815 6.840113 139.999954
[Rope1_Seg07]
5 139.999985 0.000060 0.000000 -9.192019 5.765216 5.909938 139.999985
6 139.999985 0.000060 0.000000 -4.930187 4.298042 5.823236 139.999985
[Rope1_Seg09]
5 121.602913 0.000119 -0.000089 -89.793175 -1.359789 0.847147 121.602913
6 121.602913 0.000119 -0.000089 -89.793175 -1.359789 0.847147 121.602913
[L_mid_hand01]
5 103.859421 1.038730 8.195221 120.930115 -61.160675 -28.229233 104.187431
6 103.859421 1.038730 8.195221 124.165955 -63.799015 -31.873352 104.187431
[L_mid_hand02]
5 105.572853 -4.139662 -10.864139 -161.940079 41.417198 -63.166000 106.211075
6 105.572853 -4.139662 -10.864139 -164.626358 42.318848 -67.191460 106.211075
[L_mid_hand03]
5 104.641464 17.579376 -3.913581 -8.453336 16.815422 66.707115 106.179977
6 104.641464 17.579376 -3.913581 -7.501869 17.251593 69.949562 106.179977
[null_rope02_connect]
5 328.732849 0.000179 -0.000119 -120.212326 1.059974 -51.303375 328.732849
6 328.732849 0.000179 -0.000119 -123.097275 11.165965 -48.755566 328.732849
[Rope2_Seg01]
5 0.000047 0.000179 0.000000 35.101021 -63.997086 126.020927 0.000185
6 0.000045 0.000186 0.000000 49.109921 -67.414749 111.052383 0.000191
[Rope2_Seg02]
5 139.999741 -0.000060 -0.000119 -0.225103 -16.788633 0.689833 139.999756
6 139.999741 -0.000060 -0.000119 -3.348427 -28.104235 10.332323 139.999756
[Rope2_Seg03]
5 140.000107 0.000030 0.000000 -4.803209 -27.537348 1.648248 140.000107
6 140.000107 0.000030 0.000000 -6.764264 -31.662163 13.707894 140.000107
[Rope2_Seg04]
5 139.999802 0.000000 -0.000060 -12.277388 -23.979692 -0.096356 139.999802
6 139.999802 0.000000 -0.000060 -18.367094 -17.015854 3.744845 139.999802
[Rope2_Seg05]
5 139.999985 -0.000060 0.000119 -35.385090 -20.976028 -8.632233 139.999985
6 139.999985 -0.000060 0.000119 -79.741989 -13.302853 -6.425614 139.999985
[Rope2_Seg06]
5 139.999893 -0.000030 -0.000119 -43.907486 -12.105566 -22.735641 139.999893
6 139.999893 -0.000030 -0.000119 -26.712238 3.127156 -12.006988 139.999893
[Rope2_Seg07]
5 139.999893 0.000060 -0.000060 -12.613018 3.576223 -13.064055 139.999893
6 139.999893 0.000060 -0.000060 -7.364374 4.870226 -6.277013 139.999893
[Rope2_Seg09]
5 121.338966 0.000089 -0.000060 33.793236 -1.359788 -0.847141 121.338966
6 121.338966 0.000089 -0.000060 33.793236 -1.359788 -0.847141 121.338966
[R_mid_hand01]
5 104.680779 11.144459 -10.335981 -33.835922 35.506741 43.638107 105.778534
6 104.680779 11.144459 -10.335981 -31.399162 37.614391 47.725441 105.778534
[R_mid_hand02]
5 104.070427 2.443552 8.231699 68.140152 -48.222805 17.192041 104.424065
6 104.070427 2.443552 8.231699 66.339699 -51.820030 19.540783 104.424065
[R_mid_hand03]
5 106.028137 -11.221827 -5.996406 -171.277405 13.243045 -53.477634 106.788818
6 106.028137 -11.221827 -5.996406 -172.206848 13.802570 -57.446243 106.788818
[spine02]
5 129.756927 0.001550 0.000119 0.510356 -4.027511 -15.089175 129.756927
6 129.756927 0.001550 0.000119 0.500874 -4.028737 -14.959087 129.756927
[spine03]
5 78.613983 0.081016 -4.898992 1.986055 3.784202 17.845583 78.766518
6 78.613960 0.081049 -4.898983 1.981370 3.786734 17.773350 78.766495
[pelvis]
5 169.435242 0.051022 0.000000 -0.002692 -0.191383 -3.317365 169.435257
6 169.435242 0.051022 0.000000 0.001825 -0.191314 -4.542410 169.435257
[null_rope03_connect]
5 -1.257226 -2.466202 137.391083 -3.428132 -16.805794 82.627266 137.418976
6 -1.257226 -2.466202 137.391083 -1.083918 -21.608292 81.114182 137.418976
[null_rope04_connect]
5 -1.259640 -2.480268 -137.844437 -3.428132 -16.805794 82.627266 137.872513
6 -1.259640 -2.480268 -137.844437 -1.083918 -21.608292 81.114182 137.872513
[Rope3_Seg01]
5 0.000000 0.000000 0.000000 19.460371 -40.183384 -75.726517 0.000000
6 0.000000 0.000000 0.000000 16.836266 -25.031952 -73.691849 0.000000
[Rope3_Seg02]
5 139.999924 -0.000119 0.000060 3.943275 17.331570 23.490667 139.999924
6 139.999924 -0.000119 0.000060 3.910150 17.026112 21.248905 139.999924
[Rope3_Seg03]
5 139.999924 -0.000119 0.000119 5.491864 15.003788 11.312807 139.999924
6 139.999924 -0.000119 0.000119 6.026643 14.170479 6.877745 139.999924
[Rope3_Seg04]
5 139.999924 0.000119 0.000000 -0.887334 1.971357 5.018672 139.999924
6 139.999924 0.000119 0.000000 -2.871579 -0.678990 5.244866 139.999924
[Rope3_Seg05]
5 139.999924 -0.000238 0.000060 -8.554814 -8.988866 3.934240 139.999924
6 139.999924 -0.000238 0.000060 -12.106135 -11.899827 7.320924 139.999924
[Rope3_Seg06]
5 139.999893 -0.000119 -0.000060 -7.813637 -11.987384 1.765363 139.999893
6 139.999893 -0.000119 -0.000060 -9.307203 -12.816298 4.100364 139.999893
[Rope3_Seg07]
5 139.999771 0.000060 -0.000119 -2.902972 -5.705952 0.943872 139.999771
6 139.999771 0.000060 -0.000119 -3.508857 -6.359358 1.653644 139.999771
[Rope3_Seg08]
5 139.999985 -0.000060 0.000000 -1.428070 -3.698030 0.448604 139.999985
6 139.999985 -0.000060 0.000000 -1.724350 -4.072858 0.800442 139.999985
[Rope3_Seg09]
5 90.185997 -0.000179 -0.000060 89.793228 -1.359877 -0.847183 90.185997
6 90.185997 -0.000179 -0.000060 89.793228 -1.359877 -0.847183 90.185997
[R_rear_hand01]
5 103.366196 -6.073594 -10.757982 -168.239944 21.836605 -50.169071 104.101845
6 103.366196 -6.073594 -10.757982 -169.896027 22.621880 -54.548431 104.101845
[R_rear_hand02]
5 100.509819 12.039542 -7.992327 -26.552080 29.320555 47.442097 101.543350
6 100.509819 12.039542 -7.992327 -24.381289 31.099262 51.752331 101.543350
[R_rear_hand03]
5 101.539970 5.215704 5.435467 81.061966 -50.389545 10.772514 101.819031
6 101.539970 5.215704 5.435467 80.187729 -54.464619 11.876325 101.819031
[Rope4_Seg01]
5 -0.000022 -0.000085 0.000000 -27.192640 44.547115 -14.426806 0.000088
6 -0.000023 -0.000096 0.000000 -27.625555 43.665497 -14.798766 0.000099
[Rope4_Seg02]
5 139.999985 0.000060 0.000119 -1.038576 -1.726403 -2.876678 139.999985
6 139.999985 0.000060 0.000119 -2.077652 -1.386441 -4.476000 139.999985
[Rope4_Seg03]
5 139.999924 0.000000 -0.000238 -1.607839 -2.195070 -3.826996 139.999924
6 139.999924 0.000000 -0.000238 -3.239839 -1.592589 -5.913544 139.999924
[Rope4_Seg04]
5 139.999985 0.000000 0.000119 -3.346892 -2.633459 -6.066177 139.999985
6 139.999985 0.000000 0.000119 -7.074600 -1.570544 -10.038726 139.999985
[Rope4_Seg05]
5 139.999802 -0.000060 -0.000119 -6.939207 -3.948880 -9.686631 139.999802
6 139.999802 -0.000060 -0.000119 -8.961169 -1.159060 -10.335232 139.999802
[Rope4_Seg06]
5 139.999924 0.000000 0.000060 -0.903939 -4.491128 -3.041925 139.999924
6 139.999924 0.000000 0.000060 0.956374 -1.838245 -0.003792 139.999924
[Rope4_Seg07]
5 139.999802 0.000000 0.000000 0.536929 -2.625535 -0.906069 139.999802
6 139.999802 0.000000 0.000000 -0.195465 -0.889838 -0.728814 139.999802
[Rope4_Seg08]
5 139.999924 0.000000 0.000119 -2.228109 -1.486693 -1.235896 139.999924
6 139.999924 0.000000 0.000119 -2.156450 -0.449752 -0.855537 139.999924
[Rope4_Seg09]
5 90.185791 0.000060 0.000060 -135.617828 2.228885 0.850567 90.185791
6 90.185791 0.000060 0.000060 -135.617828 2.228885 0.850567 90.185791
[L_rear_hand01]
5 101.696655 -8.392275 -7.654577 -18.320505 -34.764030 117.122688 102.329041
6 101.696655 -8.392275 -7.654577 -16.606985 -35.526833 114.151627 102.329041
[L_rear_hand02]
5 102.726799 -1.568258 5.773216 76.791893 64.286453 164.197693 102.900848
6 102.726799 -1.568258 5.773216 75.446793 66.761162 162.720444 102.900848
[L_rear_hand03]
5 104.552910 9.721220 -10.420293 -174.182648 -24.011168 -114.648102 105.519653
6 104.552910 9.721220 -10.420293 -175.325195 -24.244326 -111.864212 105.519653
